<?xml version="1.0" encoding="UTF-8"?>
<svg id="Layer_1" xmlns="http://www.w3.org/2000/svg" version="1.1" viewBox="0 0 471.63 136.8">
  <!-- Generator: Adobe Illustrator 29.1.0, SVG Export Plug-In . SVG Version: 2.1.0 Build 142)  -->
  <defs>
    <style>
      .st0 {
        fill: #e50914;
      }
    </style>
  </defs>
  <path class="st0" d="M19.06,37.68c-.05,31.67-.11,63.35-.16,95.02-7.57,1.57-11.35,2.39-18.9,4.1V1.55c10.66-.03,16-.04,26.66-.06,7.04,25.1,14.22,50.15,21.56,75.16.09-25.07.18-50.14.27-75.21,7.57-.02,11.36-.02,18.93-.04-.18,40.83-.36,81.66-.54,122.49-8.7,1.39-13.05,2.13-21.73,3.7-8.94-29.91-17.63-59.88-26.09-89.93Z"/>
  <path class="st0" d="M103.69,50.81c9.73-.53,19.46-.99,29.2-1.39-.03,6.52-.05,9.79-.08,16.31-9.74.53-19.48,1.14-29.2,1.84-.06,11.46-.12,22.91-.17,34.37,12.24-1.31,24.5-2.44,36.77-3.39-.03,6.48-.04,9.73-.07,16.21-19.39,1.74-38.76,3.98-58.02,6.81.19-40.07.39-80.13.58-120.2,19.32-.03,38.64-.06,57.96-.08-.03,6.48-.04,9.73-.07,16.21-12.24.17-24.48.37-36.72.6-.05,10.9-.11,21.8-.16,32.69Z"/>
  <path class="st0" d="M147.61,1.29c21.9-.02,43.8-.03,65.69-.04,0,6.26-.01,9.38-.02,15.64-8.9.03-13.34.05-22.24.11-.08,31.48-.16,62.95-.24,94.43-8.55.36-12.83.58-21.37,1.11.11-31.79.23-63.58.34-95.37-8.89.08-13.34.13-22.23.25.03-6.45.04-9.67.07-16.12Z"/>
  <path class="st0" d="M220.82,27.49C219.65,9.14,237.49.26,253.11,0c16.32-.27,32.71,9.62,32.34,27.75.05,19.13.11,38.26.16,57.4.02,6.15-1.33,11.3-4.04,15.29.98,2.08,2.53,2.46,6.03,2.62.78.03,1.17.05,1.94.09.02,6.19.03,9.29.05,15.48-1.17-.06-1.75-.09-2.92-.15-9.52-.48-15.56-3.5-18.48-8.28-4.28,1.13-9.4,1.71-14.97,1.69-15.98-.07-33.69-9.05-32.46-27.53.02-18.95.03-37.9.05-56.85ZM242.13,85.37c0,7.8,4.28,10.78,11.08,10.88,6.8.1,11.07-2.77,11.06-10.6-.03-19.73-.07-39.46-.1-59.19-.01-7.83-4.27-10.82-11.04-10.84s-11.02,2.95-11.02,10.75c0,19.66.01,39.33.02,58.99Z"/>
  <path class="st0" d="M319.39,1.29c.12,28.93.25,57.86.37,86.78.03,8.04,4.31,11.21,11.1,11.74,6.78.53,11.03-2.04,10.99-10.21-.14-29.43-.28-58.86-.43-88.29,8.04,0,12.06.01,20.09.02.15,29.6.3,59.2.45,88.8.68,18.41-14.89,27.86-31.61,25.99-15.84-1.78-32.97-11.88-31.92-30.29-.1-28.18-.19-56.37-.29-84.55,8.5,0,12.75,0,21.25.02Z"/>
  <path class="st0" d="M376,1.36c8.5.01,12.75.02,21.25.03.19,40.47.37,80.95.56,121.42-8.48-1.3-12.72-1.91-21.22-3.03-.2-39.47-.39-78.95-.59-118.42Z"/>
  <path class="st0" d="M471.63,1.55v18.93c-12.82,30.21-26.14,60.18-40.03,89.91,13.38,2.14,26.73,4.5,40.03,7.08v19.32c-20.48-4.51-41.01-8.53-61.69-12.05-.03-6.91-.04-10.36-.07-17.27,13.83-28.88,27.14-57.98,39.97-87.31-12.8-.4-25.6-.76-38.41-1.08-.03-7.07-.04-10.6-.07-17.66,20.09.04,40.18.08,60.28.13Z"/>
</svg>